<svg xmlns="http://www.w3.org/2000/svg" viewBox="0 0 100 100" width="100px" height="100px">
    <path fill="#c8ede6"
        d="M87.214,55.677c0.3-0.616,0.566-1.264,0.796-1.943c2.633-7.77-1.349-17.078-9.733-19.325C77.37,23.026,69.37,15.216,60.335,13.884c-10.341-1.525-19.814,5.044-22.966,15.485c-3.799-1.346-7.501-1.182-10.99,0.857c-1.583,0.732-3.031,1.812-4.33,3.233c-1.907,2.086-3.147,4.719-3.652,7.495c-0.748,0.118-1.483,0.236-2.176,0.484c-4.04,1.449-6.589,4.431-7.288,8.923c-0.435,2.797,0.443,5.587,0.933,6.714c1.935,4.455,6.422,6.98,10.981,6.312c0.227-0.033,0.557,0.069,0.752,0.233c0.241,7.12,3.698,13.417,8.884,17.014c8.321,5.772,19.027,3.994,25.781-3.921c2.894,2.96,6.338,4.398,10.384,3.876c4.023-0.519,7.147-2.739,9.426-6.349c1.053,0.283,2.051,0.691,3.083,0.804c4.042,0.442,7.297-1.184,9.732-4.8c0.083-0.124,0.203-0.219,0.306-0.328c0.348-0.798,0.696-1.596,1.044-2.394c0.155-1.211,0.429-2.423,0.443-3.632C90.722,60.634,89.39,57.667,87.214,55.677z" />
    <path fill="#fdfcef" d="M46.182,61.349c1.883,0,3.517,0,3.54,0c2.11,0,3.821-1.674,3.821-3.739c0-1.802-1.302-3.305-3.035-3.66c0.02-0.158,0.034-0.317,0.034-0.48c0-2.139-1.772-3.873-3.957-3.873c-1.29,0-2.433,0.607-3.155,1.543c-0.185-2.381-2.358-4.218-4.9-3.913c-1.859,0.223-3.397,1.629-3.739,3.431c-0.11,0.578-0.098,1.139,0.011,1.665c-0.498-0.525-1.208-0.856-1.998-0.856c-1.446,0-2.627,1.102-2.72,2.494c-0.657-0.142-1.371-0.133-2.123,0.143c-1.438,0.528-2.462,1.853-2.522,3.356c-0.085,2.133,1.657,3.889,3.818,3.889c0.164,0,0.741,0,0.874,0h7.934 M39.705,61.349h0.36" />
    <path fill="#472b29"
        d="M49.722,61.849h-3.54c-0.276,0-0.5-0.224-0.5-0.5s0.224-0.5,0.5-0.5h3.54c1.831,0,3.321-1.453,3.321-3.239c0-1.524-1.108-2.857-2.637-3.17c-0.257-0.052-0.429-0.294-0.396-0.554c0.018-0.137,0.03-0.275,0.03-0.416c0-1.86-1.551-3.373-3.457-3.373c-1.092,0-2.098,0.492-2.76,1.349c-0.126,0.164-0.341,0.232-0.538,0.173c-0.198-0.059-0.34-0.234-0.355-0.44c-0.079-1.019-0.565-1.943-1.369-2.603c-0.829-0.68-1.885-0.983-2.974-0.853c-1.646,0.197-3.006,1.442-3.307,3.028c-0.094,0.494-0.091,0.988,0.009,1.471c0.046,0.219-0.06,0.441-0.258,0.544c-0.197,0.104-0.439,0.064-0.595-0.099c-0.428-0.451-1.008-0.7-1.635-0.7c-1.17,0-2.146,0.891-2.221,2.027c-0.01,0.145-0.082,0.279-0.198,0.366c-0.115,0.087-0.264,0.12-0.406,0.089c-0.64-0.139-1.242-0.098-1.847,0.124c-1.262,0.464-2.144,1.632-2.193,2.906c-0.035,0.875,0.282,1.708,0.895,2.345c0.635,0.661,1.495,1.024,2.423,1.024h8.808c0.276,0,0.5,0.224,0.5,0.5s-0.224,0.5-0.5,0.5h-8.808c-1.185,0-2.331-0.485-3.144-1.332c-0.803-0.835-1.219-1.928-1.174-3.078c0.066-1.674,1.212-3.203,2.849-3.805c0.611-0.225,1.245-0.307,1.881-0.245c0.344-1.396,1.629-2.424,3.136-2.424c0.493,0,0.977,0.113,1.413,0.323c0.01-0.242,0.037-0.484,0.083-0.726c0.381-2.009,2.096-3.585,4.17-3.834c1.365-0.162,2.686,0.218,3.727,1.073c0.748,0.613,1.278,1.409,1.546,2.302c0.791-0.648,1.786-1.007,2.843-1.007c2.458,0,4.457,1.962,4.457,4.373c0,0.034-0.001,0.068-0.002,0.103c1.765,0.555,3.004,2.188,3.004,4.038C54.043,59.947,52.105,61.849,49.722,61.849z M40.065,61.849h-0.36c-0.276,0-0.5-0.224-0.5-0.5s0.224-0.5,0.5-0.5h0.36c0.276,0,0.5,0.224,0.5,0.5S40.341,61.849,40.065,61.849z" />
    <path fill="#472b29" d="M48.015 56.046c-.018 0-.036-.002-.055-.006-.135-.03-.22-.164-.189-.299.037-.164.094-.325.169-.479.605-1.225 2.274-1.676 3.722-1.007.126.058.181.207.122.332-.058.125-.208.18-.331.122-1.206-.557-2.579-.209-3.063.774-.059.118-.102.241-.13.367C48.233 55.967 48.129 56.046 48.015 56.046zM42.856 61.849H41.75c-.276 0-.5-.224-.5-.5s.224-.5.5-.5h1.106c.276 0 .5.224.5.5S43.132 61.849 42.856 61.849z" />
    <path fill="#fdfcef" d="M68.858,55.094h10.151c0.171,0,0.908,0,1.118,0c2.765,0,4.993-2.295,4.885-5.085c-0.077-1.964-1.387-3.696-3.227-4.387c-0.963-0.361-1.877-0.373-2.717-0.188c-0.119-1.82-1.63-3.261-3.48-3.261c-1.011,0-1.919,0.432-2.557,1.119c0.14-0.688,0.155-1.422,0.014-2.177c-0.438-2.356-2.405-4.195-4.784-4.486c-3.253-0.398-6.033,2.004-6.27,5.116c-0.924-1.223-2.386-2.017-4.037-2.017c-2.796,0-5.063,2.267-5.063,5.063c0,0.213,0.017,0.422,0.043,0.628c-2.218,0.463-3.884,2.429-3.884,4.784c0,2.7,2.189,4.889,4.888,4.889c0.071,0,11.762,0,11.762,0" />
    <path fill="#472b29"
        d="M80.127,55.594h-11.27c-0.276,0-0.5-0.224-0.5-0.5s0.224-0.5,0.5-0.5h11.27c1.204,0,2.328-0.478,3.163-1.347c0.835-0.868,1.269-2.011,1.222-3.218c-0.067-1.729-1.234-3.312-2.903-3.938c-0.796-0.298-1.59-0.354-2.433-0.167c-0.143,0.032-0.292,0-0.408-0.088c-0.117-0.087-0.189-0.222-0.199-0.367c-0.103-1.567-1.412-2.794-2.98-2.794c-0.838,0-1.615,0.341-2.19,0.959c-0.152,0.165-0.397,0.206-0.595,0.104c-0.199-0.103-0.306-0.325-0.262-0.544c0.133-0.651,0.137-1.319,0.013-1.986c-0.397-2.138-2.188-3.816-4.353-4.081c-1.409-0.173-2.778,0.223-3.86,1.109c-1.071,0.878-1.745,2.171-1.85,3.549c-0.017,0.207-0.158,0.383-0.358,0.441c-0.197,0.059-0.414-0.012-0.539-0.178c-0.874-1.156-2.2-1.818-3.639-1.818c-2.517,0-4.563,2.047-4.563,4.563c0,0.192,0.017,0.381,0.039,0.567c0.032,0.258-0.14,0.497-0.394,0.55c-2.021,0.422-3.486,2.229-3.486,4.295c0,2.42,1.969,4.389,4.389,4.389h11.762c0.276,0,0.5,0.224,0.5,0.5s-0.224,0.5-0.5,0.5H53.94c-2.972,0-5.389-2.417-5.389-5.389c0-2.387,1.594-4.491,3.848-5.164c-0.005-0.083-0.007-0.165-0.007-0.249c0-3.068,2.496-5.563,5.563-5.563c1.395,0,2.701,0.51,3.714,1.426c0.321-1.243,1.034-2.37,2.038-3.193c1.295-1.062,2.936-1.533,4.615-1.328c2.595,0.317,4.738,2.329,5.214,4.891c0.072,0.387,0.108,0.774,0.107,1.159c0.59-0.33,1.26-0.51,1.944-0.51c1.907,0,3.527,1.359,3.904,3.182c0.84-0.1,1.667-0.001,2.468,0.299c2.041,0.766,3.468,2.709,3.552,4.835c0.058,1.481-0.476,2.885-1.501,3.951S81.606,55.594,80.127,55.594z" />
    <path fill="#fdfcef" d="M68.535,44.325c1.808-0.119,3.365,1.13,3.476,2.789c0.014,0.206,0.005,0.409-0.025,0.606c0.349-0.394,0.865-0.661,1.458-0.7c1.085-0.071,2.022,0.645,2.158,1.62c0.197-0.054,0.403-0.09,0.616-0.104c1.582-0.104,2.944,0.989,3.042,2.441" />
    <path fill="#472b29"
        d="M79.259,51.226c-0.131,0-0.24-0.101-0.249-0.233c-0.089-1.312-1.35-2.309-2.775-2.208c-0.188,0.012-0.379,0.044-0.568,0.096c-0.068,0.019-0.144,0.007-0.203-0.033c-0.06-0.04-0.1-0.103-0.11-0.174c-0.118-0.849-0.96-1.471-1.893-1.405c-0.5,0.033-0.97,0.258-1.287,0.617c-0.074,0.083-0.194,0.106-0.294,0.061c-0.101-0.047-0.157-0.155-0.141-0.265c0.027-0.18,0.035-0.365,0.023-0.551c-0.102-1.52-1.563-2.666-3.211-2.557c-0.006,0-0.012,0-0.017,0c-0.131,0-0.241-0.102-0.249-0.233c-0.01-0.138,0.095-0.257,0.232-0.266c1.943-0.122,3.623,1.228,3.742,3.022c0.002,0.019,0.003,0.037,0.004,0.055c0.34-0.222,0.738-0.354,1.163-0.382c1.11-0.072,2.091,0.601,2.365,1.568c0.137-0.026,0.274-0.044,0.41-0.053c1.713-0.118,3.199,1.087,3.306,2.673c0.01,0.138-0.095,0.257-0.232,0.266C79.27,51.226,79.265,51.226,79.259,51.226z" />
    <path fill="#fdfcef" d="M51.96,45.994c1.699-0.801,3.664-0.234,4.389,1.267c0.09,0.186,0.157,0.379,0.201,0.574" />
    <path fill="#472b29" d="M56.55,48.084c-0.114,0-0.217-0.078-0.243-0.194c-0.042-0.181-0.104-0.356-0.184-0.521c-0.664-1.374-2.481-1.89-4.057-1.149c-0.122,0.059-0.273,0.006-0.333-0.12c-0.059-0.125-0.005-0.273,0.12-0.333c1.82-0.857,3.937-0.238,4.721,1.384c0.096,0.199,0.169,0.41,0.219,0.626c0.031,0.135-0.053,0.269-0.187,0.3C56.587,48.082,56.569,48.084,56.55,48.084z" />
    <path fill="#fff"
        d="M84.361 68.759h-10.03c-.276 0-.5-.224-.5-.5s.224-.5.5-.5h10.03c.276 0 .5.224.5.5S84.637 68.759 84.361 68.759zM87.242 68.759h-1.445c-.276 0-.5-.224-.5-.5s.224-.5.5-.5h1.445c.276 0 .5.224.5.5S87.518 68.759 87.242 68.759zM91.296 68.759h-2.546c-.276 0-.5-.224-.5-.5s.224-.5.5-.5h2.546c.276 0 .5.224.5.5S91.573 68.759 91.296 68.759zM91.296 70.624H81.68c-.276 0-.5-.224-.5-.5s.224-.5.5-.5h9.616c.276 0 .5.224.5.5S91.573 70.624 91.296 70.624zM79.949 70.624h-.58c-.276 0-.5-.224-.5-.5s.224-.5.5-.5h.58c.276 0 .5.224.5.5S80.225 70.624 79.949 70.624zM77.572 70.624h-1.456c-.276 0-.5-.224-.5-.5s.224-.5.5-.5h1.456c.276 0 .5.224.5.5S77.848 70.624 77.572 70.624zM86.708 66.894H81.68c-.276 0-.5-.224-.5-.5s.224-.5.5-.5h5.027c.276 0 .5.224.5.5S86.984 66.894 86.708 66.894zM86.708 65.029h-1.257c-.276 0-.5-.224-.5-.5s.224-.5.5-.5h1.257c.276 0 .5.224.5.5S86.984 65.029 86.708 65.029zM83.439 72.489H81.68c-.276 0-.5-.224-.5-.5s.224-.5.5-.5h1.759c.276 0 .5.224.5.5S83.715 72.489 83.439 72.489zM18.359 51.211H8.329c-.276 0-.5-.224-.5-.5s.224-.5.5-.5h10.03c.276 0 .5.224.5.5S18.635 51.211 18.359 51.211zM21.24 51.211h-1.445c-.276 0-.5-.224-.5-.5s.224-.5.5-.5h1.445c.276 0 .5.224.5.5S21.516 51.211 21.24 51.211zM25.294 51.211h-2.546c-.276 0-.5-.224-.5-.5s.224-.5.5-.5h2.546c.276 0 .5.224.5.5S25.571 51.211 25.294 51.211zM23.269 47.481h-9.616c-.276 0-.5-.224-.5-.5s.224-.5.5-.5h9.616c.276 0 .5.224.5.5S23.545 47.481 23.269 47.481zM11.921 47.481h-.58c-.276 0-.5-.224-.5-.5s.224-.5.5-.5h.58c.276 0 .5.224.5.5S12.198 47.481 11.921 47.481zM9.544 47.481H8.088c-.276 0-.5-.224-.5-.5s.224-.5.5-.5h1.456c.276 0 .5.224.5.5S9.821 47.481 9.544 47.481zM20.706 49.346h-5.027c-.276 0-.5-.224-.5-.5s.224-.5.5-.5h5.027c.276 0 .5.224.5.5S20.982 49.346 20.706 49.346z" />
    <path fill="#fff" d="M20.706 47.481h-1.257c-.276 0-.5-.224-.5-.5s.224-.5.5-.5h1.257c.276 0 .5.224.5.5S20.982 47.481 20.706 47.481zM14.223 49.346h-1.759c-.276 0-.5-.224-.5-.5s.224-.5.5-.5h1.759c.276 0 .5.224.5.5S14.5 49.346 14.223 49.346z" />
    <path fill="#ee3e54" d="M56.863,29.992c-6.263-3.796-14.417-1.796-18.213,4.467c-3.796,6.263-1.796,14.417,4.467,18.213c6.263,3.796,14.417,1.796,18.213-4.467C65.126,41.943,63.126,33.788,56.863,29.992z M48.725,37.893l-4.301,0.091c-0.917,0.11-1.188,0-2.104,0l0,0c-4.056,0.152-2.375-3.397-1.29-3.397l7.477,0.027c1.146-0.027,1.163,0.59,1.32,1.042C50.126,36.52,49.827,37.718,48.725,37.893z" />
    <path fill="#472b29" d="M49.964,55.298c-2.52,0-5-0.688-7.211-2.027c-6.582-3.99-8.692-12.592-4.702-19.174s12.59-8.693,19.175-4.703c6.582,3.99,8.692,12.592,4.702,19.174c-1.933,3.189-4.991,5.435-8.613,6.323C52.204,55.163,51.081,55.298,49.964,55.298z M50.01,28.775c-4.25,0-8.402,2.154-10.762,6.047c-3.59,5.923-1.691,13.662,4.231,17.251c2.869,1.74,6.244,2.258,9.502,1.458c3.258-0.799,6.01-2.819,7.749-5.688c3.59-5.923,1.691-13.662-4.231-17.251C54.47,29.361,52.227,28.775,50.01,28.775z" />
    <path fill="#ce942b" d="M60.7,47.721l-9.729,6.663c0,0-0.376,0.924,0.007,1.484s1.227,0.815,1.781,0.428l2.154-1.475l4.621,6.747l1.651,0.14l-0.391,1.566l2.038,0.533L62.385,65.6l1.855,0.457l-0.264,1.869l1.587,0.202l-0.2,1.538l5.461,2.264l0.331-4.844L60.298,51.133l1.59-1.087c0.549-0.375,0.83-1.087,0.571-1.699C62.143,47.598,61.28,47.324,60.7,47.721z" />
    <path fill="#472b29"
        d="M70.823,72.43c-0.064,0-0.13-0.013-0.191-0.038l-5.46-2.264c-0.209-0.086-0.334-0.302-0.305-0.526l0.136-1.041l-1.09-0.139c-0.133-0.017-0.253-0.086-0.334-0.193s-0.116-0.241-0.098-0.373l0.2-1.422l-1.416-0.349c-0.129-0.032-0.239-0.113-0.309-0.227c-0.068-0.114-0.089-0.25-0.057-0.379l0.328-1.314l-1.561-0.408c-0.265-0.069-0.425-0.339-0.358-0.605l0.249-0.996l-1.066-0.091c-0.149-0.013-0.286-0.092-0.37-0.215l-4.338-6.335l-1.742,1.193c-0.34,0.237-0.771,0.325-1.227,0.243c-0.502-0.092-0.97-0.392-1.25-0.801c-0.52-0.759-0.105-1.834-0.057-1.955c0.037-0.091,0.1-0.168,0.181-0.224l9.729-6.663l0,0c0.388-0.266,0.879-0.336,1.349-0.2c0.517,0.152,0.937,0.533,1.153,1.045c0.34,0.807,0.024,1.776-0.75,2.306l-1.179,0.806l10.576,15.54c0.063,0.093,0.094,0.204,0.086,0.315l-0.332,4.844c-0.011,0.161-0.099,0.306-0.235,0.391C71.006,72.405,70.915,72.43,70.823,72.43z M65.908,69.351l4.464,1.851l0.272-3.978l-10.76-15.81c-0.155-0.228-0.097-0.539,0.131-0.694l1.591-1.087c0.377-0.258,0.546-0.728,0.393-1.093c-0.099-0.234-0.286-0.407-0.514-0.474c-0.183-0.052-0.36-0.03-0.502,0.066l-9.593,6.569c-0.077,0.26-0.144,0.672,0.001,0.882c0.131,0.191,0.362,0.337,0.604,0.382c0.105,0.02,0.311,0.036,0.478-0.082l2.158-1.478c0.108-0.075,0.241-0.104,0.374-0.079c0.131,0.024,0.246,0.1,0.32,0.209l4.486,6.552l1.415,0.12c0.146,0.012,0.279,0.088,0.364,0.207c0.086,0.119,0.114,0.27,0.079,0.412l-0.271,1.086l1.561,0.408c0.265,0.069,0.425,0.339,0.358,0.605l-0.326,1.307l1.368,0.337c0.249,0.061,0.411,0.301,0.375,0.555l-0.193,1.368l1.085,0.138c0.132,0.017,0.251,0.085,0.332,0.19c0.081,0.105,0.117,0.238,0.101,0.37L65.908,69.351z" />
    <path fill="#e2ad17" d="M60.425,48.515l-3.269,2.239l13.29,19.634l0.223-3.161l-10.884-16.11l1.441-1.008c0.472-0.323,1.225-0.993,0.795-1.62C61.507,47.738,61.088,48.004,60.425,48.515z" />
    <path fill="#472b29"
        d="M67.289 65.744c-.079 0-.158-.038-.206-.109l-.771-1.125c-.078-.114-.049-.27.064-.347.116-.077.271-.049.348.065l.771 1.125c.078.114.049.27-.064.347C67.386 65.73 67.337 65.744 67.289 65.744zM65.559 63.218c-.079 0-.158-.038-.206-.109l-1.155-1.687c-.078-.114-.049-.27.064-.347.115-.077.271-.049.348.065l1.155 1.687c.078.114.049.27-.064.347C65.657 63.204 65.608 63.218 65.559 63.218zM63.297 59.915c-.079 0-.158-.038-.206-.109l-4.753-6.939c-.078-.114-.049-.27.064-.347.115-.077.271-.049.348.065l4.753 6.939c.078.114.049.27-.064.347C63.395 59.901 63.346 59.915 63.297 59.915zM51.887 56.337c-.069 0-.125-.056-.125-.125v-2.098c0-.069.056-.125.125-.125s.125.056.125.125v2.098C52.012 56.281 51.957 56.337 51.887 56.337zM52.582 55.932c-.069 0-.125-.056-.125-.125v-2.098c0-.069.056-.125.125-.125s.125.056.125.125v2.098C52.707 55.876 52.651 55.932 52.582 55.932zM53.276 55.526c-.069 0-.125-.056-.125-.125v-2.098c0-.069.056-.125.125-.125s.125.056.125.125v2.098C53.401 55.47 53.345 55.526 53.276 55.526zM53.97 55.12c-.069 0-.125-.056-.125-.125v-2.098c0-.069.056-.125.125-.125s.125.056.125.125v2.098C54.095 55.064 54.04 55.12 53.97 55.12zM54.609 54.065c-.069 0-.125-.056-.125-.125v-1.692c0-.069.056-.125.125-.125s.125.056.125.125v1.692C54.734 54.009 54.678 54.065 54.609 54.065zM55.303 53.016c-.069 0-.125-.056-.125-.125v-1.049c0-.069.056-.125.125-.125s.125.056.125.125v1.049C55.428 52.96 55.373 53.016 55.303 53.016z" />
    <path fill="#88ae45" d="M57.209,37.476c-3.023-6.671-10.88-9.628-17.551-6.605c-6.671,3.023-9.628,10.88-6.605,17.551c3.023,6.671,10.88,9.628,17.551,6.605C57.274,52.004,60.231,44.146,57.209,37.476z M48.184,37.841l-6.746-0.005c-0.896-0.001-1.629-0.735-1.629-1.631v0c0.001-0.896,0.735-1.629,1.631-1.629l6.746,0.005c0.896,0.001,1.629,0.735,1.629,1.631C49.815,37.109,49.081,37.842,48.184,37.841z" />
    <path fill="#472b29" d="M45.152,56.908c-5.315,0-10.404-3.05-12.737-8.198c-3.177-7.011-0.058-15.3,6.954-18.478c7.011-3.178,15.3-0.058,18.478,6.954l0,0c3.177,7.011,0.058,15.3-6.953,18.478C49.03,56.509,47.076,56.908,45.152,56.908z M45.112,30.389c-1.731,0-3.488,0.359-5.165,1.119c-6.309,2.858-9.115,10.316-6.257,16.624s10.317,9.115,16.625,6.257c6.308-2.858,9.114-10.316,6.256-16.625C54.472,33.134,49.894,30.389,45.112,30.389z" />
    <path fill="#6f913d" d="M51.693,43.321l0.013-0.025c-0.613-1.089-1.677-1.891-2.932-2.171c-0.062-0.014-0.125-0.028-0.188-0.039c-0.092-0.017-0.185-0.032-0.279-0.043c-0.141-0.017-0.284-0.026-0.429-0.03c-0.026,0-0.05-0.005-0.076-0.005h-0.027h-5.281h-0.028c-2.448,0-4.451,2.003-4.451,4.451v0.803c0,0.774,0.202,1.502,0.555,2.138l-0.013,0.024c0.613,1.089,1.677,1.891,2.932,2.171c0.062,0.014,0.125,0.028,0.188,0.039c0.092,0.017,0.185,0.032,0.279,0.043c0.141,0.017,0.284,0.026,0.429,0.03c0.026,0,0.05,0.005,0.076,0.005h0.027h5.281h0.028c2.448,0,4.451-2.003,4.451-4.451v-0.803C52.248,44.685,52.046,43.956,51.693,43.321z" />
    <path fill="#f1bc19" d="M50.358,54.271H38.566c0,0-0.832,0.55-0.833,1.228c0,0.678,0.552,1.365,1.228,1.36h2.611v8.178l1.283,1.048l-1.207,1.071l1.381,1.591l-1.382,1.227l1.272,1.425l-1.274,1.393l1.195,1.064l-1.034,1.155l3.226,4.953l3.01-3.81l0.056-19.296l1.926,0.001c0.665,0.001,1.299-0.428,1.431-1.079C51.618,54.985,51.061,54.272,50.358,54.271z" />
    <path fill="#472b29"
        d="M45.032 80.465c-.008 0-.016 0-.022 0-.161-.007-.309-.092-.396-.227l-3.227-4.953c-.123-.189-.104-.438.046-.606l.7-.782-.82-.73c-.101-.089-.16-.214-.167-.348-.007-.134.04-.265.13-.363l.97-1.06-.972-1.088c-.089-.099-.134-.229-.126-.362.008-.133.067-.257.167-.345l1.013-.899-1.057-1.218c-.18-.207-.159-.52.046-.702l.769-.682-.828-.676c-.116-.095-.184-.237-.184-.387v-7.678h-2.111c-.004 0-.008 0-.012 0-.412 0-.817-.175-1.138-.494-.362-.36-.579-.871-.578-1.367 0-.92.949-1.573 1.058-1.645.082-.054.178-.083.275-.083h11.791l0 0c.47 0 .917.218 1.227.597.341.417.472.969.361 1.514-.175.857-.982 1.479-1.921 1.479h-.001l-1.427-.001-.055 18.797c0 .112-.038.221-.107.309l-3.011 3.81C45.329 80.395 45.184 80.465 45.032 80.465zM42.433 75.06l2.638 4.049 2.473-3.128.055-19.124c.001-.275.225-.499.5-.499l0 0 1.926.001c.001 0 .001 0 .001 0 .457 0 .861-.292.94-.679.051-.25-.006-.498-.155-.681-.121-.148-.281-.229-.452-.229H38.732c-.211.17-.498.474-.498.728 0 .232.108.483.283.657.076.076.234.203.437.203.001 0 .003 0 .004 0h2.615c.276 0 .5.224.5.5V64.8l1.099.898c.113.093.181.23.184.377s-.059.287-.168.384l-.837.743 1.057 1.218c.18.207.159.52-.046.702l-1.008.894.938 1.051c.171.191.169.481-.004.67l-.933 1.019.816.727c.1.088.159.212.167.345.008.132-.038.263-.126.362L42.433 75.06zM45.585 36.457c-.03 0-.062 0-.092-.001-2.72-.052-4.89-2.347-4.838-5.116.052-2.738 2.257-4.931 4.936-4.931.03 0 .061 0 .092.001.999.019 1.956.34 2.766.927.168.122.205.356.084.524-.121.168-.354.205-.523.083-.687-.498-1.495-.769-2.34-.785-.026 0-.053-.001-.078-.001-2.271 0-4.142 1.866-4.186 4.195-.044 2.355 1.796 4.308 4.102 4.352.026 0 .053.001.078.001 1.022 0 2.004-.379 2.771-1.072.153-.139.39-.127.529.027.139.154.127.391-.027.53C47.954 36.009 46.793 36.457 45.585 36.457z" />
    <g>
        <path fill="#fff" d="M52.248,45.537v0.731c0,0.82-0.225,1.589-0.615,2.251" />
        <path fill="#472b29" d="M51.632,48.769c-0.044,0-0.087-0.011-0.127-0.035c-0.119-0.07-0.158-0.224-0.088-0.342c0.379-0.643,0.58-1.377,0.58-2.124v-0.731c0-0.138,0.112-0.25,0.25-0.25s0.25,0.112,0.25,0.25v0.731c0,0.836-0.225,1.658-0.65,2.377C51.801,48.725,51.717,48.769,51.632,48.769z" />
    </g>
    <path fill="#472b29" d="M47.718,50.963h-5.254c-2.592,0-4.7-2.109-4.7-4.701v-0.803c0-2.592,2.108-4.701,4.7-4.701h5.286c1.696,0,3.269,0.926,4.103,2.416c0.067,0.121,0.024,0.273-0.096,0.34c-0.12,0.066-0.271,0.025-0.34-0.096c-0.746-1.333-2.151-2.16-3.667-2.16h-5.286c-2.316,0-4.2,1.884-4.2,4.201v0.803c0,2.316,1.884,4.201,4.2,4.201h5.254c0.138,0,0.25,0.112,0.25,0.25S47.856,50.963,47.718,50.963z" />
    <g>
        <path fill="#fbcd59" d="M49.701,54.727h-3.962l-0.128,23.809l1.97-2.493l0.122-19.524l1.758-0.017c0.572,0,1.572-0.127,1.572-0.892C51.033,54.697,50.505,54.727,49.701,54.727z" />
    </g>
    <g>
        <path fill="#472b29" d="M45.751 72.908c-.138 0-.25-.112-.25-.25v-1.363c0-.138.112-.25.25-.25s.25.112.25.25v1.363C46.001 72.796 45.889 72.908 45.751 72.908zM45.751 69.847c-.138 0-.25-.112-.25-.25v-2.045c0-.138.112-.25.25-.25s.25.112.25.25v2.045C46.001 69.736 45.889 69.847 45.751 69.847zM45.751 65.844c-.138 0-.25-.112-.25-.25v-8.411c0-.138.112-.25.25-.25s.25.112.25.25v8.411C46.001 65.732 45.889 65.844 45.751 65.844z" />
    </g>
    <path fill="#472b29" d="M48.199,38.359c-0.001,0-0.002,0-0.002,0l-6.746-0.004c-0.534,0-1.037-0.21-1.416-0.59c-0.38-0.38-0.589-0.883-0.588-1.417c0.001-1.105,0.9-2.003,2.005-2.003h0.001l6.746,0.005c1.105,0,2.004,0.901,2.004,2.006C50.202,37.461,49.302,38.359,48.199,38.359z M41.452,35.094c-0.691,0-1.254,0.562-1.255,1.254c0,0.333,0.131,0.648,0.368,0.886c0.238,0.238,0.553,0.37,0.886,0.37l6.746,0.004l0,0c0.001,0,0.001,0,0.002,0c0.69,0,1.253-0.562,1.254-1.254c0-0.692-0.562-1.255-1.254-1.256L41.452,35.094L41.452,35.094z" />
</svg>